<svg width="163" height="163" viewBox="0 0 163 163" fill="none" xmlns="http://www.w3.org/2000/svg">
<circle cx="81.5" cy="81.5" r="81.5" fill="#16A34A" fill-opacity="0.8"/>
<mask id="path-2-outside-1_17_2" maskUnits="userSpaceOnUse" x="34" y="59" width="87" height="41" fill="black">
<rect fill="white" x="34" y="59" width="87" height="41"/>
<path d="M62.7188 98H42.0938V96.3125H48.0312V62.1875H46.9688C45.5521 62.1875 44.3438 62.4583 43.3438 63C41.8854 63.8333 40.6979 65.5833 39.7812 68.25L37.8438 73.875H35.9688L36.2188 60.5H68.5938L68.8438 73.875H66.9688L65.0312 68.25C64.7396 67.4583 64.4688 66.7708 64.2188 66.1875C62.9688 63.5208 60.8438 62.1875 57.8438 62.1875H56.7812V96.3125H61.0312C61.9062 96.3958 62.4688 96.9583 62.7188 98ZM119.344 60.5V62.1875H114.344V96.3125H117.656C118.531 96.3958 119.094 96.9583 119.344 98H100.906V96.3125H105.906V66.625L92.4688 98.625H91.3438L78.0312 72.75V96.3125H81.3438C82.2188 96.3958 82.7812 96.9583 83.0312 98H70.4062V96.3125H75.4062V62.1875H70.4062V60.5H81.5938L94.7188 87.375L105.906 60.5H119.344Z"/>
</mask>
<path d="M62.7188 98H42.0938V96.3125H48.0312V62.1875H46.9688C45.5521 62.1875 44.3438 62.4583 43.3438 63C41.8854 63.8333 40.6979 65.5833 39.7812 68.25L37.8438 73.875H35.9688L36.2188 60.5H68.5938L68.8438 73.875H66.9688L65.0312 68.25C64.7396 67.4583 64.4688 66.7708 64.2188 66.1875C62.9688 63.5208 60.8438 62.1875 57.8438 62.1875H56.7812V96.3125H61.0312C61.9062 96.3958 62.4688 96.9583 62.7188 98ZM119.344 60.5V62.1875H114.344V96.3125H117.656C118.531 96.3958 119.094 96.9583 119.344 98H100.906V96.3125H105.906V66.625L92.4688 98.625H91.3438L78.0312 72.75V96.3125H81.3438C82.2188 96.3958 82.7812 96.9583 83.0312 98H70.4062V96.3125H75.4062V62.1875H70.4062V60.5H81.5938L94.7188 87.375L105.906 60.5H119.344Z" fill="#FDF9F9"/>
<path d="M62.7188 98V99H63.9871L63.6911 97.7666L62.7188 98ZM42.0938 98H41.0938V99H42.0938V98ZM42.0938 96.3125V95.3125H41.0938V96.3125H42.0938ZM48.0312 96.3125V97.3125H49.0312V96.3125H48.0312ZM48.0312 62.1875H49.0312V61.1875H48.0312V62.1875ZM43.3438 63L42.8675 62.1207L42.8575 62.1261L42.8476 62.1318L43.3438 63ZM39.7812 68.25L40.7267 68.5757L40.7269 68.5751L39.7812 68.25ZM37.8438 73.875V74.875H38.557L38.7892 74.2007L37.8438 73.875ZM35.9688 73.875L34.9689 73.8563L34.9499 74.875H35.9688V73.875ZM36.2188 60.5V59.5H35.2373L35.2189 60.4813L36.2188 60.5ZM68.5938 60.5L69.5936 60.4813L69.5752 59.5H68.5938V60.5ZM68.8438 73.875V74.875H69.8626L69.8436 73.8563L68.8438 73.875ZM66.9688 73.875L66.0233 74.2007L66.2555 74.875H66.9688V73.875ZM65.0312 68.25L65.9767 67.9243L65.9733 67.9143L65.9696 67.9043L65.0312 68.25ZM64.2188 66.1875L65.1379 65.7936L65.1313 65.7782L65.1242 65.7631L64.2188 66.1875ZM56.7812 62.1875V61.1875H55.7812V62.1875H56.7812ZM56.7812 96.3125H55.7812V97.3125H56.7812V96.3125ZM61.0312 96.3125L61.1261 95.317L61.0788 95.3125H61.0312V96.3125ZM62.7188 97H42.0938V99H62.7188V97ZM43.0938 98V96.3125H41.0938V98H43.0938ZM42.0938 97.3125H48.0312V95.3125H42.0938V97.3125ZM49.0312 96.3125V62.1875H47.0312V96.3125H49.0312ZM48.0312 61.1875H46.9688V63.1875H48.0312V61.1875ZM46.9688 61.1875C45.426 61.1875 44.0454 61.4827 42.8675 62.1207L43.82 63.8793C44.6421 63.434 45.6782 63.1875 46.9688 63.1875V61.1875ZM42.8476 62.1318C41.0758 63.1442 39.7816 65.1729 38.8356 67.9249L40.7269 68.5751C41.6143 65.9938 42.6951 64.5224 43.8399 63.8682L42.8476 62.1318ZM38.8358 67.9243L36.8983 73.5493L38.7892 74.2007L40.7267 68.5757L38.8358 67.9243ZM37.8438 72.875H35.9688V74.875H37.8438V72.875ZM36.9686 73.8937L37.2186 60.5187L35.2189 60.4813L34.9689 73.8563L36.9686 73.8937ZM36.2188 61.5H68.5938V59.5H36.2188V61.5ZM67.5939 60.5187L67.8439 73.8937L69.8436 73.8563L69.5936 60.4813L67.5939 60.5187ZM68.8438 72.875H66.9688V74.875H68.8438V72.875ZM67.9142 73.5493L65.9767 67.9243L64.0858 68.5757L66.0233 74.2007L67.9142 73.5493ZM65.9696 67.9043C65.6738 67.1013 65.3965 66.397 65.1379 65.7936L63.2996 66.5814C63.541 67.1447 63.8054 67.8154 64.0929 68.5957L65.9696 67.9043ZM65.1242 65.7631C64.4321 64.2867 63.4707 63.1258 62.219 62.3404C60.9684 61.5558 59.4946 61.1875 57.8438 61.1875V63.1875C59.1929 63.1875 60.2816 63.4859 61.156 64.0346C62.0293 64.5825 62.7554 65.4217 63.3133 66.6119L65.1242 65.7631ZM57.8438 61.1875H56.7812V63.1875H57.8438V61.1875ZM55.7812 62.1875V96.3125H57.7812V62.1875H55.7812ZM56.7812 97.3125H61.0312V95.3125H56.7812V97.3125ZM60.9364 97.308C61.1684 97.3301 61.3029 97.4046 61.4023 97.504C61.5153 97.617 61.65 97.8317 61.7464 98.2334L63.6911 97.7666C63.5375 97.1267 63.2659 96.5392 62.8165 96.0898C62.3533 95.6266 61.7691 95.3782 61.1261 95.317L60.9364 97.308ZM119.344 60.5H120.344V59.5H119.344V60.5ZM119.344 62.1875V63.1875H120.344V62.1875H119.344ZM114.344 62.1875V61.1875H113.344V62.1875H114.344ZM114.344 96.3125H113.344V97.3125H114.344V96.3125ZM117.656 96.3125L117.751 95.317L117.704 95.3125H117.656V96.3125ZM119.344 98V99H120.612L120.316 97.7666L119.344 98ZM100.906 98H99.9062V99H100.906V98ZM100.906 96.3125V95.3125H99.9062V96.3125H100.906ZM105.906 96.3125V97.3125H106.906V96.3125H105.906ZM105.906 66.625H106.906L104.984 66.2378L105.906 66.625ZM92.4688 98.625V99.625H93.1334L93.3908 99.0122L92.4688 98.625ZM91.3438 98.625L90.4545 99.0825L90.7337 99.625H91.3438V98.625ZM78.0312 72.75L78.9205 72.2925L77.0312 72.75H78.0312ZM78.0312 96.3125H77.0312V97.3125H78.0312V96.3125ZM81.3438 96.3125L81.4386 95.317L81.3913 95.3125H81.3438V96.3125ZM83.0312 98V99H84.2996L84.0036 97.7666L83.0312 98ZM70.4062 98H69.4062V99H70.4062V98ZM70.4062 96.3125V95.3125H69.4062V96.3125H70.4062ZM75.4062 96.3125V97.3125H76.4062V96.3125H75.4062ZM75.4062 62.1875H76.4062V61.1875H75.4062V62.1875ZM70.4062 62.1875H69.4062V63.1875H70.4062V62.1875ZM70.4062 60.5V59.5H69.4062V60.5H70.4062ZM81.5938 60.5L82.4923 60.0612L82.2183 59.5H81.5938V60.5ZM94.7188 87.375L93.8202 87.8138L94.7914 89.8025L95.642 87.7593L94.7188 87.375ZM105.906 60.5V59.5H105.239L104.983 60.1157L105.906 60.5ZM118.344 60.5V62.1875H120.344V60.5H118.344ZM119.344 61.1875H114.344V63.1875H119.344V61.1875ZM113.344 62.1875V96.3125H115.344V62.1875H113.344ZM114.344 97.3125H117.656V95.3125H114.344V97.3125ZM117.561 97.308C117.793 97.3301 117.928 97.4046 118.027 97.504C118.14 97.617 118.275 97.8317 118.371 98.2334L120.316 97.7666C120.163 97.1267 119.891 96.5392 119.441 96.0898C118.978 95.6266 118.394 95.3782 117.751 95.317L117.561 97.308ZM119.344 97H100.906V99H119.344V97ZM101.906 98V96.3125H99.9062V98H101.906ZM100.906 97.3125H105.906V95.3125H100.906V97.3125ZM106.906 96.3125V66.625H104.906V96.3125H106.906ZM104.984 66.2378L91.5467 98.2378L93.3908 99.0122L106.828 67.0122L104.984 66.2378ZM92.4688 97.625H91.3438V99.625H92.4688V97.625ZM92.233 98.1675L78.9205 72.2925L77.142 73.2075L90.4545 99.0825L92.233 98.1675ZM77.0312 72.75V96.3125H79.0312V72.75H77.0312ZM78.0312 97.3125H81.3438V95.3125H78.0312V97.3125ZM81.2489 97.308C81.4809 97.3301 81.6154 97.4046 81.7148 97.504C81.8278 97.617 81.9625 97.8317 82.0589 98.2334L84.0036 97.7666C83.85 97.1267 83.5784 96.5392 83.129 96.0898C82.6658 95.6266 82.0816 95.3782 81.4386 95.317L81.2489 97.308ZM83.0312 97H70.4062V99H83.0312V97ZM71.4062 98V96.3125H69.4062V98H71.4062ZM70.4062 97.3125H75.4062V95.3125H70.4062V97.3125ZM76.4062 96.3125V62.1875H74.4062V96.3125H76.4062ZM75.4062 61.1875H70.4062V63.1875H75.4062V61.1875ZM71.4062 62.1875V60.5H69.4062V62.1875H71.4062ZM70.4062 61.5H81.5938V59.5H70.4062V61.5ZM80.6952 60.9388L93.8202 87.8138L95.6173 86.9362L82.4923 60.0612L80.6952 60.9388ZM95.642 87.7593L106.829 60.8843L104.983 60.1157L93.7955 86.9907L95.642 87.7593ZM105.906 61.5H119.344V59.5H105.906V61.5Z" fill="#FFF9F9" mask="url(#path-2-outside-1_17_2)"/>
<path d="M62.7188 98V99H63.9871L63.6911 97.7666L62.7188 98ZM42.0938 98H41.0938V99H42.0938V98ZM42.0938 96.3125V95.3125H41.0938V96.3125H42.0938ZM48.0312 96.3125V97.3125H49.0312V96.3125H48.0312ZM48.0312 62.1875H49.0312V61.1875H48.0312V62.1875ZM43.3438 63L42.8675 62.1207L42.8575 62.1261L42.8476 62.1318L43.3438 63ZM39.7812 68.25L40.7267 68.5757L40.7269 68.5751L39.7812 68.25ZM37.8438 73.875V74.875H38.557L38.7892 74.2007L37.8438 73.875ZM35.9688 73.875L34.9689 73.8563L34.9499 74.875H35.9688V73.875ZM36.2188 60.5V59.5H35.2373L35.2189 60.4813L36.2188 60.5ZM68.5938 60.5L69.5936 60.4813L69.5752 59.5H68.5938V60.5ZM68.8438 73.875V74.875H69.8626L69.8436 73.8563L68.8438 73.875ZM66.9688 73.875L66.0233 74.2007L66.2555 74.875H66.9688V73.875ZM65.0312 68.25L65.9767 67.9243L65.9733 67.9143L65.9696 67.9043L65.0312 68.25ZM64.2188 66.1875L65.1379 65.7936L65.1313 65.7782L65.1242 65.7631L64.2188 66.1875ZM56.7812 62.1875V61.1875H55.7812V62.1875H56.7812ZM56.7812 96.3125H55.7812V97.3125H56.7812V96.3125ZM61.0312 96.3125L61.1261 95.317L61.0788 95.3125H61.0312V96.3125ZM62.7188 97H42.0938V99H62.7188V97ZM43.0938 98V96.3125H41.0938V98H43.0938ZM42.0938 97.3125H48.0312V95.3125H42.0938V97.3125ZM49.0312 96.3125V62.1875H47.0312V96.3125H49.0312ZM48.0312 61.1875H46.9688V63.1875H48.0312V61.1875ZM46.9688 61.1875C45.426 61.1875 44.0454 61.4827 42.8675 62.1207L43.82 63.8793C44.6421 63.434 45.6782 63.1875 46.9688 63.1875V61.1875ZM42.8476 62.1318C41.0758 63.1442 39.7816 65.1729 38.8356 67.9249L40.7269 68.5751C41.6143 65.9938 42.6951 64.5224 43.8399 63.8682L42.8476 62.1318ZM38.8358 67.9243L36.8983 73.5493L38.7892 74.2007L40.7267 68.5757L38.8358 67.9243ZM37.8438 72.875H35.9688V74.875H37.8438V72.875ZM36.9686 73.8937L37.2186 60.5187L35.2189 60.4813L34.9689 73.8563L36.9686 73.8937ZM36.2188 61.5H68.5938V59.5H36.2188V61.5ZM67.5939 60.5187L67.8439 73.8937L69.8436 73.8563L69.5936 60.4813L67.5939 60.5187ZM68.8438 72.875H66.9688V74.875H68.8438V72.875ZM67.9142 73.5493L65.9767 67.9243L64.0858 68.5757L66.0233 74.2007L67.9142 73.5493ZM65.9696 67.9043C65.6738 67.1013 65.3965 66.397 65.1379 65.7936L63.2996 66.5814C63.541 67.1447 63.8054 67.8154 64.0929 68.5957L65.9696 67.9043ZM65.1242 65.7631C64.4321 64.2867 63.4707 63.1258 62.219 62.3404C60.9684 61.5558 59.4946 61.1875 57.8438 61.1875V63.1875C59.1929 63.1875 60.2816 63.4859 61.156 64.0346C62.0293 64.5825 62.7554 65.4217 63.3133 66.6119L65.1242 65.7631ZM57.8438 61.1875H56.7812V63.1875H57.8438V61.1875ZM55.7812 62.1875V96.3125H57.7812V62.1875H55.7812ZM56.7812 97.3125H61.0312V95.3125H56.7812V97.3125ZM60.9364 97.308C61.1684 97.3301 61.3029 97.4046 61.4023 97.504C61.5153 97.617 61.65 97.8317 61.7464 98.2334L63.6911 97.7666C63.5375 97.1267 63.2659 96.5392 62.8165 96.0898C62.3533 95.6266 61.7691 95.3782 61.1261 95.317L60.9364 97.308ZM119.344 60.5H120.344V59.5H119.344V60.5ZM119.344 62.1875V63.1875H120.344V62.1875H119.344ZM114.344 62.1875V61.1875H113.344V62.1875H114.344ZM114.344 96.3125H113.344V97.3125H114.344V96.3125ZM117.656 96.3125L117.751 95.317L117.704 95.3125H117.656V96.3125ZM119.344 98V99H120.612L120.316 97.7666L119.344 98ZM100.906 98H99.9062V99H100.906V98ZM100.906 96.3125V95.3125H99.9062V96.3125H100.906ZM105.906 96.3125V97.3125H106.906V96.3125H105.906ZM105.906 66.625H106.906L104.984 66.2378L105.906 66.625ZM92.4688 98.625V99.625H93.1334L93.3908 99.0122L92.4688 98.625ZM91.3438 98.625L90.4545 99.0825L90.7337 99.625H91.3438V98.625ZM78.0312 72.75L78.9205 72.2925L77.0312 72.75H78.0312ZM78.0312 96.3125H77.0312V97.3125H78.0312V96.3125ZM81.3438 96.3125L81.4386 95.317L81.3913 95.3125H81.3438V96.3125ZM83.0312 98V99H84.2996L84.0036 97.7666L83.0312 98ZM70.4062 98H69.4062V99H70.4062V98ZM70.4062 96.3125V95.3125H69.4062V96.3125H70.4062ZM75.4062 96.3125V97.3125H76.4062V96.3125H75.4062ZM75.4062 62.1875H76.4062V61.1875H75.4062V62.1875ZM70.4062 62.1875H69.4062V63.1875H70.4062V62.1875ZM70.4062 60.5V59.5H69.4062V60.5H70.4062ZM81.5938 60.5L82.4923 60.0612L82.2183 59.5H81.5938V60.5ZM94.7188 87.375L93.8202 87.8138L94.7914 89.8025L95.642 87.7593L94.7188 87.375ZM105.906 60.5V59.5H105.239L104.983 60.1157L105.906 60.5ZM118.344 60.5V62.1875H120.344V60.5H118.344ZM119.344 61.1875H114.344V63.1875H119.344V61.1875ZM113.344 62.1875V96.3125H115.344V62.1875H113.344ZM114.344 97.3125H117.656V95.3125H114.344V97.3125ZM117.561 97.308C117.793 97.3301 117.928 97.4046 118.027 97.504C118.14 97.617 118.275 97.8317 118.371 98.2334L120.316 97.7666C120.163 97.1267 119.891 96.5392 119.441 96.0898C118.978 95.6266 118.394 95.3782 117.751 95.317L117.561 97.308ZM119.344 97H100.906V99H119.344V97ZM101.906 98V96.3125H99.9062V98H101.906ZM100.906 97.3125H105.906V95.3125H100.906V97.3125ZM106.906 96.3125V66.625H104.906V96.3125H106.906ZM104.984 66.2378L91.5467 98.2378L93.3908 99.0122L106.828 67.0122L104.984 66.2378ZM92.4688 97.625H91.3438V99.625H92.4688V97.625ZM92.233 98.1675L78.9205 72.2925L77.142 73.2075L90.4545 99.0825L92.233 98.1675ZM77.0312 72.75V96.3125H79.0312V72.75H77.0312ZM78.0312 97.3125H81.3438V95.3125H78.0312V97.3125ZM81.2489 97.308C81.4809 97.3301 81.6154 97.4046 81.7148 97.504C81.8278 97.617 81.9625 97.8317 82.0589 98.2334L84.0036 97.7666C83.85 97.1267 83.5784 96.5392 83.129 96.0898C82.6658 95.6266 82.0816 95.3782 81.4386 95.317L81.2489 97.308ZM83.0312 97H70.4062V99H83.0312V97ZM71.4062 98V96.3125H69.4062V98H71.4062ZM70.4062 97.3125H75.4062V95.3125H70.4062V97.3125ZM76.4062 96.3125V62.1875H74.4062V96.3125H76.4062ZM75.4062 61.1875H70.4062V63.1875H75.4062V61.1875ZM71.4062 62.1875V60.5H69.4062V62.1875H71.4062ZM70.4062 61.5H81.5938V59.5H70.4062V61.5ZM80.6952 60.9388L93.8202 87.8138L95.6173 86.9362L82.4923 60.0612L80.6952 60.9388ZM95.642 87.7593L106.829 60.8843L104.983 60.1157L93.7955 86.9907L95.642 87.7593ZM105.906 61.5H119.344V59.5H105.906V61.5Z" fill="black" fill-opacity="0.2" mask="url(#path-2-outside-1_17_2)"/>
<path d="M62.7188 98V99H63.9871L63.6911 97.7666L62.7188 98ZM42.0938 98H41.0938V99H42.0938V98ZM42.0938 96.3125V95.3125H41.0938V96.3125H42.0938ZM48.0312 96.3125V97.3125H49.0312V96.3125H48.0312ZM48.0312 62.1875H49.0312V61.1875H48.0312V62.1875ZM43.3438 63L42.8675 62.1207L42.8575 62.1261L42.8476 62.1318L43.3438 63ZM39.7812 68.25L40.7267 68.5757L40.7269 68.5751L39.7812 68.25ZM37.8438 73.875V74.875H38.557L38.7892 74.2007L37.8438 73.875ZM35.9688 73.875L34.9689 73.8563L34.9499 74.875H35.9688V73.875ZM36.2188 60.5V59.5H35.2373L35.2189 60.4813L36.2188 60.5ZM68.5938 60.5L69.5936 60.4813L69.5752 59.5H68.5938V60.5ZM68.8438 73.875V74.875H69.8626L69.8436 73.8563L68.8438 73.875ZM66.9688 73.875L66.0233 74.2007L66.2555 74.875H66.9688V73.875ZM65.0312 68.25L65.9767 67.9243L65.9733 67.9143L65.9696 67.9043L65.0312 68.25ZM64.2188 66.1875L65.1379 65.7936L65.1313 65.7782L65.1242 65.7631L64.2188 66.1875ZM56.7812 62.1875V61.1875H55.7812V62.1875H56.7812ZM56.7812 96.3125H55.7812V97.3125H56.7812V96.3125ZM61.0312 96.3125L61.1261 95.317L61.0788 95.3125H61.0312V96.3125ZM62.7188 97H42.0938V99H62.7188V97ZM43.0938 98V96.3125H41.0938V98H43.0938ZM42.0938 97.3125H48.0312V95.3125H42.0938V97.3125ZM49.0312 96.3125V62.1875H47.0312V96.3125H49.0312ZM48.0312 61.1875H46.9688V63.1875H48.0312V61.1875ZM46.9688 61.1875C45.426 61.1875 44.0454 61.4827 42.8675 62.1207L43.82 63.8793C44.6421 63.434 45.6782 63.1875 46.9688 63.1875V61.1875ZM42.8476 62.1318C41.0758 63.1442 39.7816 65.1729 38.8356 67.9249L40.7269 68.5751C41.6143 65.9938 42.6951 64.5224 43.8399 63.8682L42.8476 62.1318ZM38.8358 67.9243L36.8983 73.5493L38.7892 74.2007L40.7267 68.5757L38.8358 67.9243ZM37.8438 72.875H35.9688V74.875H37.8438V72.875ZM36.9686 73.8937L37.2186 60.5187L35.2189 60.4813L34.9689 73.8563L36.9686 73.8937ZM36.2188 61.5H68.5938V59.5H36.2188V61.5ZM67.5939 60.5187L67.8439 73.8937L69.8436 73.8563L69.5936 60.4813L67.5939 60.5187ZM68.8438 72.875H66.9688V74.875H68.8438V72.875ZM67.9142 73.5493L65.9767 67.9243L64.0858 68.5757L66.0233 74.2007L67.9142 73.5493ZM65.9696 67.9043C65.6738 67.1013 65.3965 66.397 65.1379 65.7936L63.2996 66.5814C63.541 67.1447 63.8054 67.8154 64.0929 68.5957L65.9696 67.9043ZM65.1242 65.7631C64.4321 64.2867 63.4707 63.1258 62.219 62.3404C60.9684 61.5558 59.4946 61.1875 57.8438 61.1875V63.1875C59.1929 63.1875 60.2816 63.4859 61.156 64.0346C62.0293 64.5825 62.7554 65.4217 63.3133 66.6119L65.1242 65.7631ZM57.8438 61.1875H56.7812V63.1875H57.8438V61.1875ZM55.7812 62.1875V96.3125H57.7812V62.1875H55.7812ZM56.7812 97.3125H61.0312V95.3125H56.7812V97.3125ZM60.9364 97.308C61.1684 97.3301 61.3029 97.4046 61.4023 97.504C61.5153 97.617 61.65 97.8317 61.7464 98.2334L63.6911 97.7666C63.5375 97.1267 63.2659 96.5392 62.8165 96.0898C62.3533 95.6266 61.7691 95.3782 61.1261 95.317L60.9364 97.308ZM119.344 60.5H120.344V59.5H119.344V60.5ZM119.344 62.1875V63.1875H120.344V62.1875H119.344ZM114.344 62.1875V61.1875H113.344V62.1875H114.344ZM114.344 96.3125H113.344V97.3125H114.344V96.3125ZM117.656 96.3125L117.751 95.317L117.704 95.3125H117.656V96.3125ZM119.344 98V99H120.612L120.316 97.7666L119.344 98ZM100.906 98H99.9062V99H100.906V98ZM100.906 96.3125V95.3125H99.9062V96.3125H100.906ZM105.906 96.3125V97.3125H106.906V96.3125H105.906ZM105.906 66.625H106.906L104.984 66.2378L105.906 66.625ZM92.4688 98.625V99.625H93.1334L93.3908 99.0122L92.4688 98.625ZM91.3438 98.625L90.4545 99.0825L90.7337 99.625H91.3438V98.625ZM78.0312 72.75L78.9205 72.2925L77.0312 72.75H78.0312ZM78.0312 96.3125H77.0312V97.3125H78.0312V96.3125ZM81.3438 96.3125L81.4386 95.317L81.3913 95.3125H81.3438V96.3125ZM83.0312 98V99H84.2996L84.0036 97.7666L83.0312 98ZM70.4062 98H69.4062V99H70.4062V98ZM70.4062 96.3125V95.3125H69.4062V96.3125H70.4062ZM75.4062 96.3125V97.3125H76.4062V96.3125H75.4062ZM75.4062 62.1875H76.4062V61.1875H75.4062V62.1875ZM70.4062 62.1875H69.4062V63.1875H70.4062V62.1875ZM70.4062 60.5V59.5H69.4062V60.5H70.4062ZM81.5938 60.5L82.4923 60.0612L82.2183 59.5H81.5938V60.5ZM94.7188 87.375L93.8202 87.8138L94.7914 89.8025L95.642 87.7593L94.7188 87.375ZM105.906 60.5V59.5H105.239L104.983 60.1157L105.906 60.5ZM118.344 60.5V62.1875H120.344V60.5H118.344ZM119.344 61.1875H114.344V63.1875H119.344V61.1875ZM113.344 62.1875V96.3125H115.344V62.1875H113.344ZM114.344 97.3125H117.656V95.3125H114.344V97.3125ZM117.561 97.308C117.793 97.3301 117.928 97.4046 118.027 97.504C118.14 97.617 118.275 97.8317 118.371 98.2334L120.316 97.7666C120.163 97.1267 119.891 96.5392 119.441 96.0898C118.978 95.6266 118.394 95.3782 117.751 95.317L117.561 97.308ZM119.344 97H100.906V99H119.344V97ZM101.906 98V96.3125H99.9062V98H101.906ZM100.906 97.3125H105.906V95.3125H100.906V97.3125ZM106.906 96.3125V66.625H104.906V96.3125H106.906ZM104.984 66.2378L91.5467 98.2378L93.3908 99.0122L106.828 67.0122L104.984 66.2378ZM92.4688 97.625H91.3438V99.625H92.4688V97.625ZM92.233 98.1675L78.9205 72.2925L77.142 73.2075L90.4545 99.0825L92.233 98.1675ZM77.0312 72.75V96.3125H79.0312V72.75H77.0312ZM78.0312 97.3125H81.3438V95.3125H78.0312V97.3125ZM81.2489 97.308C81.4809 97.3301 81.6154 97.4046 81.7148 97.504C81.8278 97.617 81.9625 97.8317 82.0589 98.2334L84.0036 97.7666C83.85 97.1267 83.5784 96.5392 83.129 96.0898C82.6658 95.6266 82.0816 95.3782 81.4386 95.317L81.2489 97.308ZM83.0312 97H70.4062V99H83.0312V97ZM71.4062 98V96.3125H69.4062V98H71.4062ZM70.4062 97.3125H75.4062V95.3125H70.4062V97.3125ZM76.4062 96.3125V62.1875H74.4062V96.3125H76.4062ZM75.4062 61.1875H70.4062V63.1875H75.4062V61.1875ZM71.4062 62.1875V60.5H69.4062V62.1875H71.4062ZM70.4062 61.5H81.5938V59.5H70.4062V61.5ZM80.6952 60.9388L93.8202 87.8138L95.6173 86.9362L82.4923 60.0612L80.6952 60.9388ZM95.642 87.7593L106.829 60.8843L104.983 60.1157L93.7955 86.9907L95.642 87.7593ZM105.906 61.5H119.344V59.5H105.906V61.5Z" fill="black" fill-opacity="0.2" mask="url(#path-2-outside-1_17_2)"/>
<path d="M62.7188 98V99H63.9871L63.6911 97.7666L62.7188 98ZM42.0938 98H41.0938V99H42.0938V98ZM42.0938 96.3125V95.3125H41.0938V96.3125H42.0938ZM48.0312 96.3125V97.3125H49.0312V96.3125H48.0312ZM48.0312 62.1875H49.0312V61.1875H48.0312V62.1875ZM43.3438 63L42.8675 62.1207L42.8575 62.1261L42.8476 62.1318L43.3438 63ZM39.7812 68.25L40.7267 68.5757L40.7269 68.5751L39.7812 68.25ZM37.8438 73.875V74.875H38.557L38.7892 74.2007L37.8438 73.875ZM35.9688 73.875L34.9689 73.8563L34.9499 74.875H35.9688V73.875ZM36.2188 60.5V59.5H35.2373L35.2189 60.4813L36.2188 60.5ZM68.5938 60.5L69.5936 60.4813L69.5752 59.5H68.5938V60.5ZM68.8438 73.875V74.875H69.8626L69.8436 73.8563L68.8438 73.875ZM66.9688 73.875L66.0233 74.2007L66.2555 74.875H66.9688V73.875ZM65.0312 68.25L65.9767 67.9243L65.9733 67.9143L65.9696 67.9043L65.0312 68.25ZM64.2188 66.1875L65.1379 65.7936L65.1313 65.7782L65.1242 65.7631L64.2188 66.1875ZM56.7812 62.1875V61.1875H55.7812V62.1875H56.7812ZM56.7812 96.3125H55.7812V97.3125H56.7812V96.3125ZM61.0312 96.3125L61.1261 95.317L61.0788 95.3125H61.0312V96.3125ZM62.7188 97H42.0938V99H62.7188V97ZM43.0938 98V96.3125H41.0938V98H43.0938ZM42.0938 97.3125H48.0312V95.3125H42.0938V97.3125ZM49.0312 96.3125V62.1875H47.0312V96.3125H49.0312ZM48.0312 61.1875H46.9688V63.1875H48.0312V61.1875ZM46.9688 61.1875C45.426 61.1875 44.0454 61.4827 42.8675 62.1207L43.82 63.8793C44.6421 63.434 45.6782 63.1875 46.9688 63.1875V61.1875ZM42.8476 62.1318C41.0758 63.1442 39.7816 65.1729 38.8356 67.9249L40.7269 68.5751C41.6143 65.9938 42.6951 64.5224 43.8399 63.8682L42.8476 62.1318ZM38.8358 67.9243L36.8983 73.5493L38.7892 74.2007L40.7267 68.5757L38.8358 67.9243ZM37.8438 72.875H35.9688V74.875H37.8438V72.875ZM36.9686 73.8937L37.2186 60.5187L35.2189 60.4813L34.9689 73.8563L36.9686 73.8937ZM36.2188 61.5H68.5938V59.5H36.2188V61.5ZM67.5939 60.5187L67.8439 73.8937L69.8436 73.8563L69.5936 60.4813L67.5939 60.5187ZM68.8438 72.875H66.9688V74.875H68.8438V72.875ZM67.9142 73.5493L65.9767 67.9243L64.0858 68.5757L66.0233 74.2007L67.9142 73.5493ZM65.9696 67.9043C65.6738 67.1013 65.3965 66.397 65.1379 65.7936L63.2996 66.5814C63.541 67.1447 63.8054 67.8154 64.0929 68.5957L65.9696 67.9043ZM65.1242 65.7631C64.4321 64.2867 63.4707 63.1258 62.219 62.3404C60.9684 61.5558 59.4946 61.1875 57.8438 61.1875V63.1875C59.1929 63.1875 60.2816 63.4859 61.156 64.0346C62.0293 64.5825 62.7554 65.4217 63.3133 66.6119L65.1242 65.7631ZM57.8438 61.1875H56.7812V63.1875H57.8438V61.1875ZM55.7812 62.1875V96.3125H57.7812V62.1875H55.7812ZM56.7812 97.3125H61.0312V95.3125H56.7812V97.3125ZM60.9364 97.308C61.1684 97.3301 61.3029 97.4046 61.4023 97.504C61.5153 97.617 61.65 97.8317 61.7464 98.2334L63.6911 97.7666C63.5375 97.1267 63.2659 96.5392 62.8165 96.0898C62.3533 95.6266 61.7691 95.3782 61.1261 95.317L60.9364 97.308ZM119.344 60.5H120.344V59.5H119.344V60.5ZM119.344 62.1875V63.1875H120.344V62.1875H119.344ZM114.344 62.1875V61.1875H113.344V62.1875H114.344ZM114.344 96.3125H113.344V97.3125H114.344V96.3125ZM117.656 96.3125L117.751 95.317L117.704 95.3125H117.656V96.3125ZM119.344 98V99H120.612L120.316 97.7666L119.344 98ZM100.906 98H99.9062V99H100.906V98ZM100.906 96.3125V95.3125H99.9062V96.3125H100.906ZM105.906 96.3125V97.3125H106.906V96.3125H105.906ZM105.906 66.625H106.906L104.984 66.2378L105.906 66.625ZM92.4688 98.625V99.625H93.1334L93.3908 99.0122L92.4688 98.625ZM91.3438 98.625L90.4545 99.0825L90.7337 99.625H91.3438V98.625ZM78.0312 72.75L78.9205 72.2925L77.0312 72.75H78.0312ZM78.0312 96.3125H77.0312V97.3125H78.0312V96.3125ZM81.3438 96.3125L81.4386 95.317L81.3913 95.3125H81.3438V96.3125ZM83.0312 98V99H84.2996L84.0036 97.7666L83.0312 98ZM70.4062 98H69.4062V99H70.4062V98ZM70.4062 96.3125V95.3125H69.4062V96.3125H70.4062ZM75.4062 96.3125V97.3125H76.4062V96.3125H75.4062ZM75.4062 62.1875H76.4062V61.1875H75.4062V62.1875ZM70.4062 62.1875H69.4062V63.1875H70.4062V62.1875ZM70.4062 60.5V59.5H69.4062V60.5H70.4062ZM81.5938 60.5L82.4923 60.0612L82.2183 59.5H81.5938V60.5ZM94.7188 87.375L93.8202 87.8138L94.7914 89.8025L95.642 87.7593L94.7188 87.375ZM105.906 60.5V59.5H105.239L104.983 60.1157L105.906 60.5ZM118.344 60.5V62.1875H120.344V60.5H118.344ZM119.344 61.1875H114.344V63.1875H119.344V61.1875ZM113.344 62.1875V96.3125H115.344V62.1875H113.344ZM114.344 97.3125H117.656V95.3125H114.344V97.3125ZM117.561 97.308C117.793 97.3301 117.928 97.4046 118.027 97.504C118.14 97.617 118.275 97.8317 118.371 98.2334L120.316 97.7666C120.163 97.1267 119.891 96.5392 119.441 96.0898C118.978 95.6266 118.394 95.3782 117.751 95.317L117.561 97.308ZM119.344 97H100.906V99H119.344V97ZM101.906 98V96.3125H99.9062V98H101.906ZM100.906 97.3125H105.906V95.3125H100.906V97.3125ZM106.906 96.3125V66.625H104.906V96.3125H106.906ZM104.984 66.2378L91.5467 98.2378L93.3908 99.0122L106.828 67.0122L104.984 66.2378ZM92.4688 97.625H91.3438V99.625H92.4688V97.625ZM92.233 98.1675L78.9205 72.2925L77.142 73.2075L90.4545 99.0825L92.233 98.1675ZM77.0312 72.75V96.3125H79.0312V72.75H77.0312ZM78.0312 97.3125H81.3438V95.3125H78.0312V97.3125ZM81.2489 97.308C81.4809 97.3301 81.6154 97.4046 81.7148 97.504C81.8278 97.617 81.9625 97.8317 82.0589 98.2334L84.0036 97.7666C83.85 97.1267 83.5784 96.5392 83.129 96.0898C82.6658 95.6266 82.0816 95.3782 81.4386 95.317L81.2489 97.308ZM83.0312 97H70.4062V99H83.0312V97ZM71.4062 98V96.3125H69.4062V98H71.4062ZM70.4062 97.3125H75.4062V95.3125H70.4062V97.3125ZM76.4062 96.3125V62.1875H74.4062V96.3125H76.4062ZM75.4062 61.1875H70.4062V63.1875H75.4062V61.1875ZM71.4062 62.1875V60.5H69.4062V62.1875H71.4062ZM70.4062 61.5H81.5938V59.5H70.4062V61.5ZM80.6952 60.9388L93.8202 87.8138L95.6173 86.9362L82.4923 60.0612L80.6952 60.9388ZM95.642 87.7593L106.829 60.8843L104.983 60.1157L93.7955 86.9907L95.642 87.7593ZM105.906 61.5H119.344V59.5H105.906V61.5Z" fill="black" fill-opacity="0.2" mask="url(#path-2-outside-1_17_2)"/>
</svg>
