<svg width="168" height="194" viewBox="0 0 168 194" fill="none" xmlns="http://www.w3.org/2000/svg">
<circle cx="81.5" cy="81.5" r="81.5" fill="#16A34A" fill-opacity="0.8"/>
<path d="M30.3613 185H23.916V184.473H25.7715V173.809H25.4395C24.9967 173.809 24.6191 173.893 24.3066 174.062C23.8509 174.323 23.4798 174.87 23.1934 175.703L22.5879 177.461H22.002L22.0801 173.281H32.1973L32.2754 177.461H31.6895L31.084 175.703C30.9928 175.456 30.9082 175.241 30.8301 175.059C30.4395 174.225 29.7754 173.809 28.8379 173.809H28.5059V184.473H29.834C30.1074 184.499 30.2832 184.674 30.3613 185ZM45.2051 185H39.9707V184.473H41.3574L39.8926 180.723H36.0059L34.5996 184.473H35.6934C35.7715 184.473 35.8431 184.479 35.9082 184.492C36.0775 184.518 36.1621 184.688 36.1621 185H32.5684V184.473H33.8184L38.0957 173.281H39.541L44.1504 184.473H44.7363C44.8145 184.473 44.8861 184.479 44.9512 184.492C45.1204 184.518 45.2051 184.688 45.2051 185ZM39.6582 180.137L37.9199 175.645L36.2402 180.137H39.6582ZM55.3027 181.738C55.3027 182.598 54.9967 183.327 54.3848 183.926C53.4993 184.772 52.2298 185.195 50.5762 185.195C49.1569 185.195 47.946 184.863 46.9434 184.199C46.9434 184.421 46.9303 184.596 46.9043 184.727C46.8392 184.935 46.6309 185.039 46.2793 185.039V180.898H47.041C47.0931 181.589 47.2363 182.201 47.4707 182.734C48.0306 183.997 49.0007 184.629 50.3809 184.629C50.7454 184.629 51.0775 184.577 51.377 184.473C52.2103 184.16 52.627 183.535 52.627 182.598C52.627 182.324 52.5684 182.057 52.4512 181.797C52.1777 181.25 51.4811 180.684 50.3613 180.098C49.1113 179.46 48.4082 179.089 48.252 178.984C47.015 178.216 46.3965 177.292 46.3965 176.211C46.3965 175.482 46.6504 174.85 47.1582 174.316C47.9525 173.496 49.1374 173.086 50.7129 173.086C51.9108 173.086 53.0501 173.34 54.1309 173.848C54.1309 173.73 54.1374 173.626 54.1504 173.535C54.2155 173.288 54.4303 173.164 54.7949 173.164V176.699H54.0332C54.0202 175.996 53.8509 175.391 53.5254 174.883C52.9915 174.076 52.1908 173.672 51.123 173.672C50.8496 173.672 50.5892 173.711 50.3418 173.789C49.5996 174.036 49.2285 174.544 49.2285 175.312C49.2285 175.612 49.2936 175.898 49.4238 176.172C49.6973 176.732 50.3809 177.298 51.4746 177.871C52.6725 178.509 53.3561 178.874 53.5254 178.965C54.7103 179.733 55.3027 180.658 55.3027 181.738ZM62.3535 185H56.4941V184.473H58.0566V173.809H56.4941V173.281H62.3535V173.809H60.791V178.848L66.377 173.809H64.8145V173.281H68.4277C68.4277 173.346 68.4212 173.411 68.4082 173.477C68.3822 173.698 68.2129 173.809 67.9004 173.809C67.8223 173.809 67.7376 173.815 67.6465 173.828C67.3861 173.893 66.9629 174.193 66.377 174.727L63.4082 177.402L68.1738 184.473H68.3496C68.623 184.499 68.7988 184.674 68.877 185L65.1465 185.02L61.416 179.219L60.791 179.785V184.473H61.8262C62.0996 184.499 62.2754 184.674 62.3535 185ZM88.1738 173.281V173.809H86.6113V184.473H87.6465C87.9199 184.499 88.0957 184.674 88.1738 185H82.4121V184.473H83.9746V175.195L79.7754 185.195H79.4238L75.2637 177.109V184.473H76.2988C76.5723 184.499 76.748 184.674 76.8262 185H72.8809V184.473H74.4434V173.809H72.8809V173.281H76.377L80.4785 181.68L83.9746 173.281H88.1738ZM101.006 185H95.7715V184.473H97.1582L95.6934 180.723H91.8066L90.4004 184.473H91.4941C91.5723 184.473 91.6439 184.479 91.709 184.492C91.8783 184.518 91.9629 184.688 91.9629 185H88.3691V184.473H89.6191L93.8965 173.281H95.3418L99.9512 184.473H100.537C100.615 184.473 100.687 184.479 100.752 184.492C100.921 184.518 101.006 184.688 101.006 185ZM95.459 180.137L93.7207 175.645L92.041 180.137H95.459ZM109.932 173.809V173.281H113.877V173.809H112.314V184.902L111.201 185.098L103.682 176.328V184.473H104.814C105.088 184.499 105.264 184.674 105.342 185H101.299V184.473H102.861V173.809H101.299V173.281H104.6L111.494 181.367V173.809H109.932ZM126.611 185H121.377V184.473H122.764L121.299 180.723H117.412L116.006 184.473H117.1C117.178 184.473 117.249 184.479 117.314 184.492C117.484 184.518 117.568 184.688 117.568 185H113.975V184.473H115.225L119.502 173.281H120.947L125.557 184.473H126.143C126.221 184.473 126.292 184.479 126.357 184.492C126.527 184.518 126.611 184.688 126.611 185ZM121.064 180.137L119.326 175.645L117.646 180.137H121.064ZM134.17 179.609H139.795V180.137H138.525V185L136.162 184.59C135.303 184.98 134.352 185.176 133.311 185.176C131.995 185.176 130.83 184.857 129.814 184.219C128.135 183.138 127.295 181.432 127.295 179.102C127.295 177.292 127.829 175.84 128.896 174.746C130.016 173.639 131.468 173.086 133.252 173.086C134.242 173.086 135.186 173.275 136.084 173.652L137.92 173.281L137.998 177.422H137.393C137.393 177.409 137.393 177.396 137.393 177.383C136.898 174.922 135.719 173.691 133.857 173.691C133.701 173.691 133.545 173.698 133.389 173.711C131.344 173.932 130.322 175.755 130.322 179.18C130.322 180.326 130.426 181.289 130.635 182.07C131.09 183.737 132.113 184.57 133.701 184.57C134.521 184.57 135.231 184.336 135.83 183.867V180.137H134.17V179.609ZM150.42 177.031H149.854L149.424 175.684C149.385 175.566 149.339 175.449 149.287 175.332C148.883 174.316 148.148 173.809 147.08 173.809H144.873V178.672H148.623V179.258H144.873V184.473H147.08C147.327 184.473 147.562 184.447 147.783 184.395C148.525 184.199 149.066 183.6 149.404 182.598L149.854 181.25H150.42L150.342 185H140.576V184.473H142.139V173.809H140.576V173.281H150.342L150.42 177.031ZM157.549 185H151.689V184.473H153.252V173.809H151.689V173.281H158.213C159.255 173.281 160.14 173.529 160.869 174.023C161.729 174.609 162.158 175.384 162.158 176.348C162.158 176.634 162.119 176.914 162.041 177.188C161.729 178.294 160.889 179.036 159.521 179.414L162.529 184.492H162.783C162.848 184.492 162.913 184.499 162.979 184.512C163.187 184.551 163.291 184.714 163.291 185L159.854 185.02L156.943 179.648H155.986V184.473H157.549V185ZM157.041 173.809H155.986V179.062H157.197C157.588 179.062 157.933 178.965 158.232 178.77C158.91 178.34 159.248 177.565 159.248 176.445C159.248 176.081 159.202 175.729 159.111 175.391C158.799 174.336 158.109 173.809 157.041 173.809Z" fill="#16A34A" fill-opacity="0.8"/>
<mask id="path-3-outside-1_14_8" maskUnits="userSpaceOnUse" x="34" y="59" width="87" height="41" fill="black">
<rect fill="white" x="34" y="59" width="87" height="41"/>
<path d="M62.7188 98H42.0938V96.3125H48.0312V62.1875H46.9688C45.5521 62.1875 44.3438 62.4583 43.3438 63C41.8854 63.8333 40.6979 65.5833 39.7812 68.25L37.8438 73.875H35.9688L36.2188 60.5H68.5938L68.8438 73.875H66.9688L65.0312 68.25C64.7396 67.4583 64.4688 66.7708 64.2188 66.1875C62.9688 63.5208 60.8438 62.1875 57.8438 62.1875H56.7812V96.3125H61.0312C61.9062 96.3958 62.4688 96.9583 62.7188 98ZM119.344 60.5V62.1875H114.344V96.3125H117.656C118.531 96.3958 119.094 96.9583 119.344 98H100.906V96.3125H105.906V66.625L92.4688 98.625H91.3438L78.0312 72.75V96.3125H81.3438C82.2188 96.3958 82.7812 96.9583 83.0312 98H70.4062V96.3125H75.4062V62.1875H70.4062V60.5H81.5938L94.7188 87.375L105.906 60.5H119.344Z"/>
</mask>
<path d="M62.7188 98H42.0938V96.3125H48.0312V62.1875H46.9688C45.5521 62.1875 44.3438 62.4583 43.3438 63C41.8854 63.8333 40.6979 65.5833 39.7812 68.25L37.8438 73.875H35.9688L36.2188 60.5H68.5938L68.8438 73.875H66.9688L65.0312 68.25C64.7396 67.4583 64.4688 66.7708 64.2188 66.1875C62.9688 63.5208 60.8438 62.1875 57.8438 62.1875H56.7812V96.3125H61.0312C61.9062 96.3958 62.4688 96.9583 62.7188 98ZM119.344 60.5V62.1875H114.344V96.3125H117.656C118.531 96.3958 119.094 96.9583 119.344 98H100.906V96.3125H105.906V66.625L92.4688 98.625H91.3438L78.0312 72.75V96.3125H81.3438C82.2188 96.3958 82.7812 96.9583 83.0312 98H70.4062V96.3125H75.4062V62.1875H70.4062V60.5H81.5938L94.7188 87.375L105.906 60.5H119.344Z" fill="#FDF9F9"/>
<path d="M62.7188 98V99H63.9871L63.6911 97.7666L62.7188 98ZM42.0938 98H41.0938V99H42.0938V98ZM42.0938 96.3125V95.3125H41.0938V96.3125H42.0938ZM48.0312 96.3125V97.3125H49.0312V96.3125H48.0312ZM48.0312 62.1875H49.0312V61.1875H48.0312V62.1875ZM43.3438 63L42.8675 62.1207L42.8575 62.1261L42.8476 62.1318L43.3438 63ZM39.7812 68.25L40.7267 68.5757L40.7269 68.5751L39.7812 68.25ZM37.8438 73.875V74.875H38.557L38.7892 74.2007L37.8438 73.875ZM35.9688 73.875L34.9689 73.8563L34.9499 74.875H35.9688V73.875ZM36.2188 60.5V59.5H35.2373L35.2189 60.4813L36.2188 60.5ZM68.5938 60.5L69.5936 60.4813L69.5752 59.5H68.5938V60.5ZM68.8438 73.875V74.875H69.8626L69.8436 73.8563L68.8438 73.875ZM66.9688 73.875L66.0233 74.2007L66.2555 74.875H66.9688V73.875ZM65.0312 68.25L65.9767 67.9243L65.9733 67.9143L65.9696 67.9043L65.0312 68.25ZM64.2188 66.1875L65.1379 65.7936L65.1313 65.7782L65.1242 65.7631L64.2188 66.1875ZM56.7812 62.1875V61.1875H55.7812V62.1875H56.7812ZM56.7812 96.3125H55.7812V97.3125H56.7812V96.3125ZM61.0312 96.3125L61.1261 95.317L61.0788 95.3125H61.0312V96.3125ZM62.7188 97H42.0938V99H62.7188V97ZM43.0938 98V96.3125H41.0938V98H43.0938ZM42.0938 97.3125H48.0312V95.3125H42.0938V97.3125ZM49.0312 96.3125V62.1875H47.0312V96.3125H49.0312ZM48.0312 61.1875H46.9688V63.1875H48.0312V61.1875ZM46.9688 61.1875C45.426 61.1875 44.0454 61.4827 42.8675 62.1207L43.82 63.8793C44.6421 63.434 45.6782 63.1875 46.9688 63.1875V61.1875ZM42.8476 62.1318C41.0758 63.1442 39.7816 65.1729 38.8356 67.9249L40.7269 68.5751C41.6143 65.9938 42.6951 64.5224 43.8399 63.8682L42.8476 62.1318ZM38.8358 67.9243L36.8983 73.5493L38.7892 74.2007L40.7267 68.5757L38.8358 67.9243ZM37.8438 72.875H35.9688V74.875H37.8438V72.875ZM36.9686 73.8937L37.2186 60.5187L35.2189 60.4813L34.9689 73.8563L36.9686 73.8937ZM36.2188 61.5H68.5938V59.5H36.2188V61.5ZM67.5939 60.5187L67.8439 73.8937L69.8436 73.8563L69.5936 60.4813L67.5939 60.5187ZM68.8438 72.875H66.9688V74.875H68.8438V72.875ZM67.9142 73.5493L65.9767 67.9243L64.0858 68.5757L66.0233 74.2007L67.9142 73.5493ZM65.9696 67.9043C65.6738 67.1013 65.3965 66.397 65.1379 65.7936L63.2996 66.5814C63.541 67.1447 63.8054 67.8154 64.0929 68.5957L65.9696 67.9043ZM65.1242 65.7631C64.4321 64.2867 63.4707 63.1258 62.219 62.3404C60.9684 61.5558 59.4946 61.1875 57.8438 61.1875V63.1875C59.1929 63.1875 60.2816 63.4859 61.156 64.0346C62.0293 64.5825 62.7554 65.4217 63.3133 66.6119L65.1242 65.7631ZM57.8438 61.1875H56.7812V63.1875H57.8438V61.1875ZM55.7812 62.1875V96.3125H57.7812V62.1875H55.7812ZM56.7812 97.3125H61.0312V95.3125H56.7812V97.3125ZM60.9364 97.308C61.1684 97.3301 61.3029 97.4046 61.4023 97.504C61.5153 97.617 61.65 97.8317 61.7464 98.2334L63.6911 97.7666C63.5375 97.1267 63.2659 96.5392 62.8165 96.0898C62.3533 95.6266 61.7691 95.3782 61.1261 95.317L60.9364 97.308ZM119.344 60.5H120.344V59.5H119.344V60.5ZM119.344 62.1875V63.1875H120.344V62.1875H119.344ZM114.344 62.1875V61.1875H113.344V62.1875H114.344ZM114.344 96.3125H113.344V97.3125H114.344V96.3125ZM117.656 96.3125L117.751 95.317L117.704 95.3125H117.656V96.3125ZM119.344 98V99H120.612L120.316 97.7666L119.344 98ZM100.906 98H99.9062V99H100.906V98ZM100.906 96.3125V95.3125H99.9062V96.3125H100.906ZM105.906 96.3125V97.3125H106.906V96.3125H105.906ZM105.906 66.625H106.906L104.984 66.2378L105.906 66.625ZM92.4688 98.625V99.625H93.1334L93.3908 99.0122L92.4688 98.625ZM91.3438 98.625L90.4545 99.0825L90.7337 99.625H91.3438V98.625ZM78.0312 72.75L78.9205 72.2925L77.0312 72.75H78.0312ZM78.0312 96.3125H77.0312V97.3125H78.0312V96.3125ZM81.3438 96.3125L81.4386 95.317L81.3913 95.3125H81.3438V96.3125ZM83.0312 98V99H84.2996L84.0036 97.7666L83.0312 98ZM70.4062 98H69.4062V99H70.4062V98ZM70.4062 96.3125V95.3125H69.4062V96.3125H70.4062ZM75.4062 96.3125V97.3125H76.4062V96.3125H75.4062ZM75.4062 62.1875H76.4062V61.1875H75.4062V62.1875ZM70.4062 62.1875H69.4062V63.1875H70.4062V62.1875ZM70.4062 60.5V59.5H69.4062V60.5H70.4062ZM81.5938 60.5L82.4923 60.0612L82.2183 59.5H81.5938V60.5ZM94.7188 87.375L93.8202 87.8138L94.7914 89.8025L95.642 87.7593L94.7188 87.375ZM105.906 60.5V59.5H105.239L104.983 60.1157L105.906 60.5ZM118.344 60.5V62.1875H120.344V60.5H118.344ZM119.344 61.1875H114.344V63.1875H119.344V61.1875ZM113.344 62.1875V96.3125H115.344V62.1875H113.344ZM114.344 97.3125H117.656V95.3125H114.344V97.3125ZM117.561 97.308C117.793 97.3301 117.928 97.4046 118.027 97.504C118.14 97.617 118.275 97.8317 118.371 98.2334L120.316 97.7666C120.163 97.1267 119.891 96.5392 119.441 96.0898C118.978 95.6266 118.394 95.3782 117.751 95.317L117.561 97.308ZM119.344 97H100.906V99H119.344V97ZM101.906 98V96.3125H99.9062V98H101.906ZM100.906 97.3125H105.906V95.3125H100.906V97.3125ZM106.906 96.3125V66.625H104.906V96.3125H106.906ZM104.984 66.2378L91.5467 98.2378L93.3908 99.0122L106.828 67.0122L104.984 66.2378ZM92.4688 97.625H91.3438V99.625H92.4688V97.625ZM92.233 98.1675L78.9205 72.2925L77.142 73.2075L90.4545 99.0825L92.233 98.1675ZM77.0312 72.75V96.3125H79.0312V72.75H77.0312ZM78.0312 97.3125H81.3438V95.3125H78.0312V97.3125ZM81.2489 97.308C81.4809 97.3301 81.6154 97.4046 81.7148 97.504C81.8278 97.617 81.9625 97.8317 82.0589 98.2334L84.0036 97.7666C83.85 97.1267 83.5784 96.5392 83.129 96.0898C82.6658 95.6266 82.0816 95.3782 81.4386 95.317L81.2489 97.308ZM83.0312 97H70.4062V99H83.0312V97ZM71.4062 98V96.3125H69.4062V98H71.4062ZM70.4062 97.3125H75.4062V95.3125H70.4062V97.3125ZM76.4062 96.3125V62.1875H74.4062V96.3125H76.4062ZM75.4062 61.1875H70.4062V63.1875H75.4062V61.1875ZM71.4062 62.1875V60.5H69.4062V62.1875H71.4062ZM70.4062 61.5H81.5938V59.5H70.4062V61.5ZM80.6952 60.9388L93.8202 87.8138L95.6173 86.9362L82.4923 60.0612L80.6952 60.9388ZM95.642 87.7593L106.829 60.8843L104.983 60.1157L93.7955 86.9907L95.642 87.7593ZM105.906 61.5H119.344V59.5H105.906V61.5Z" fill="#FFF9F9" mask="url(#path-3-outside-1_14_8)"/>
<path d="M62.7188 98V99H63.9871L63.6911 97.7666L62.7188 98ZM42.0938 98H41.0938V99H42.0938V98ZM42.0938 96.3125V95.3125H41.0938V96.3125H42.0938ZM48.0312 96.3125V97.3125H49.0312V96.3125H48.0312ZM48.0312 62.1875H49.0312V61.1875H48.0312V62.1875ZM43.3438 63L42.8675 62.1207L42.8575 62.1261L42.8476 62.1318L43.3438 63ZM39.7812 68.25L40.7267 68.5757L40.7269 68.5751L39.7812 68.25ZM37.8438 73.875V74.875H38.557L38.7892 74.2007L37.8438 73.875ZM35.9688 73.875L34.9689 73.8563L34.9499 74.875H35.9688V73.875ZM36.2188 60.5V59.5H35.2373L35.2189 60.4813L36.2188 60.5ZM68.5938 60.5L69.5936 60.4813L69.5752 59.5H68.5938V60.5ZM68.8438 73.875V74.875H69.8626L69.8436 73.8563L68.8438 73.875ZM66.9688 73.875L66.0233 74.2007L66.2555 74.875H66.9688V73.875ZM65.0312 68.25L65.9767 67.9243L65.9733 67.9143L65.9696 67.9043L65.0312 68.25ZM64.2188 66.1875L65.1379 65.7936L65.1313 65.7782L65.1242 65.7631L64.2188 66.1875ZM56.7812 62.1875V61.1875H55.7812V62.1875H56.7812ZM56.7812 96.3125H55.7812V97.3125H56.7812V96.3125ZM61.0312 96.3125L61.1261 95.317L61.0788 95.3125H61.0312V96.3125ZM62.7188 97H42.0938V99H62.7188V97ZM43.0938 98V96.3125H41.0938V98H43.0938ZM42.0938 97.3125H48.0312V95.3125H42.0938V97.3125ZM49.0312 96.3125V62.1875H47.0312V96.3125H49.0312ZM48.0312 61.1875H46.9688V63.1875H48.0312V61.1875ZM46.9688 61.1875C45.426 61.1875 44.0454 61.4827 42.8675 62.1207L43.82 63.8793C44.6421 63.434 45.6782 63.1875 46.9688 63.1875V61.1875ZM42.8476 62.1318C41.0758 63.1442 39.7816 65.1729 38.8356 67.9249L40.7269 68.5751C41.6143 65.9938 42.6951 64.5224 43.8399 63.8682L42.8476 62.1318ZM38.8358 67.9243L36.8983 73.5493L38.7892 74.2007L40.7267 68.5757L38.8358 67.9243ZM37.8438 72.875H35.9688V74.875H37.8438V72.875ZM36.9686 73.8937L37.2186 60.5187L35.2189 60.4813L34.9689 73.8563L36.9686 73.8937ZM36.2188 61.5H68.5938V59.5H36.2188V61.5ZM67.5939 60.5187L67.8439 73.8937L69.8436 73.8563L69.5936 60.4813L67.5939 60.5187ZM68.8438 72.875H66.9688V74.875H68.8438V72.875ZM67.9142 73.5493L65.9767 67.9243L64.0858 68.5757L66.0233 74.2007L67.9142 73.5493ZM65.9696 67.9043C65.6738 67.1013 65.3965 66.397 65.1379 65.7936L63.2996 66.5814C63.541 67.1447 63.8054 67.8154 64.0929 68.5957L65.9696 67.9043ZM65.1242 65.7631C64.4321 64.2867 63.4707 63.1258 62.219 62.3404C60.9684 61.5558 59.4946 61.1875 57.8438 61.1875V63.1875C59.1929 63.1875 60.2816 63.4859 61.156 64.0346C62.0293 64.5825 62.7554 65.4217 63.3133 66.6119L65.1242 65.7631ZM57.8438 61.1875H56.7812V63.1875H57.8438V61.1875ZM55.7812 62.1875V96.3125H57.7812V62.1875H55.7812ZM56.7812 97.3125H61.0312V95.3125H56.7812V97.3125ZM60.9364 97.308C61.1684 97.3301 61.3029 97.4046 61.4023 97.504C61.5153 97.617 61.65 97.8317 61.7464 98.2334L63.6911 97.7666C63.5375 97.1267 63.2659 96.5392 62.8165 96.0898C62.3533 95.6266 61.7691 95.3782 61.1261 95.317L60.9364 97.308ZM119.344 60.5H120.344V59.5H119.344V60.5ZM119.344 62.1875V63.1875H120.344V62.1875H119.344ZM114.344 62.1875V61.1875H113.344V62.1875H114.344ZM114.344 96.3125H113.344V97.3125H114.344V96.3125ZM117.656 96.3125L117.751 95.317L117.704 95.3125H117.656V96.3125ZM119.344 98V99H120.612L120.316 97.7666L119.344 98ZM100.906 98H99.9062V99H100.906V98ZM100.906 96.3125V95.3125H99.9062V96.3125H100.906ZM105.906 96.3125V97.3125H106.906V96.3125H105.906ZM105.906 66.625H106.906L104.984 66.2378L105.906 66.625ZM92.4688 98.625V99.625H93.1334L93.3908 99.0122L92.4688 98.625ZM91.3438 98.625L90.4545 99.0825L90.7337 99.625H91.3438V98.625ZM78.0312 72.75L78.9205 72.2925L77.0312 72.75H78.0312ZM78.0312 96.3125H77.0312V97.3125H78.0312V96.3125ZM81.3438 96.3125L81.4386 95.317L81.3913 95.3125H81.3438V96.3125ZM83.0312 98V99H84.2996L84.0036 97.7666L83.0312 98ZM70.4062 98H69.4062V99H70.4062V98ZM70.4062 96.3125V95.3125H69.4062V96.3125H70.4062ZM75.4062 96.3125V97.3125H76.4062V96.3125H75.4062ZM75.4062 62.1875H76.4062V61.1875H75.4062V62.1875ZM70.4062 62.1875H69.4062V63.1875H70.4062V62.1875ZM70.4062 60.5V59.5H69.4062V60.5H70.4062ZM81.5938 60.5L82.4923 60.0612L82.2183 59.5H81.5938V60.5ZM94.7188 87.375L93.8202 87.8138L94.7914 89.8025L95.642 87.7593L94.7188 87.375ZM105.906 60.5V59.5H105.239L104.983 60.1157L105.906 60.5ZM118.344 60.5V62.1875H120.344V60.5H118.344ZM119.344 61.1875H114.344V63.1875H119.344V61.1875ZM113.344 62.1875V96.3125H115.344V62.1875H113.344ZM114.344 97.3125H117.656V95.3125H114.344V97.3125ZM117.561 97.308C117.793 97.3301 117.928 97.4046 118.027 97.504C118.14 97.617 118.275 97.8317 118.371 98.2334L120.316 97.7666C120.163 97.1267 119.891 96.5392 119.441 96.0898C118.978 95.6266 118.394 95.3782 117.751 95.317L117.561 97.308ZM119.344 97H100.906V99H119.344V97ZM101.906 98V96.3125H99.9062V98H101.906ZM100.906 97.3125H105.906V95.3125H100.906V97.3125ZM106.906 96.3125V66.625H104.906V96.3125H106.906ZM104.984 66.2378L91.5467 98.2378L93.3908 99.0122L106.828 67.0122L104.984 66.2378ZM92.4688 97.625H91.3438V99.625H92.4688V97.625ZM92.233 98.1675L78.9205 72.2925L77.142 73.2075L90.4545 99.0825L92.233 98.1675ZM77.0312 72.75V96.3125H79.0312V72.75H77.0312ZM78.0312 97.3125H81.3438V95.3125H78.0312V97.3125ZM81.2489 97.308C81.4809 97.3301 81.6154 97.4046 81.7148 97.504C81.8278 97.617 81.9625 97.8317 82.0589 98.2334L84.0036 97.7666C83.85 97.1267 83.5784 96.5392 83.129 96.0898C82.6658 95.6266 82.0816 95.3782 81.4386 95.317L81.2489 97.308ZM83.0312 97H70.4062V99H83.0312V97ZM71.4062 98V96.3125H69.4062V98H71.4062ZM70.4062 97.3125H75.4062V95.3125H70.4062V97.3125ZM76.4062 96.3125V62.1875H74.4062V96.3125H76.4062ZM75.4062 61.1875H70.4062V63.1875H75.4062V61.1875ZM71.4062 62.1875V60.5H69.4062V62.1875H71.4062ZM70.4062 61.5H81.5938V59.5H70.4062V61.5ZM80.6952 60.9388L93.8202 87.8138L95.6173 86.9362L82.4923 60.0612L80.6952 60.9388ZM95.642 87.7593L106.829 60.8843L104.983 60.1157L93.7955 86.9907L95.642 87.7593ZM105.906 61.5H119.344V59.5H105.906V61.5Z" fill="black" fill-opacity="0.2" mask="url(#path-3-outside-1_14_8)"/>
<path d="M62.7188 98V99H63.9871L63.6911 97.7666L62.7188 98ZM42.0938 98H41.0938V99H42.0938V98ZM42.0938 96.3125V95.3125H41.0938V96.3125H42.0938ZM48.0312 96.3125V97.3125H49.0312V96.3125H48.0312ZM48.0312 62.1875H49.0312V61.1875H48.0312V62.1875ZM43.3438 63L42.8675 62.1207L42.8575 62.1261L42.8476 62.1318L43.3438 63ZM39.7812 68.25L40.7267 68.5757L40.7269 68.5751L39.7812 68.25ZM37.8438 73.875V74.875H38.557L38.7892 74.2007L37.8438 73.875ZM35.9688 73.875L34.9689 73.8563L34.9499 74.875H35.9688V73.875ZM36.2188 60.5V59.5H35.2373L35.2189 60.4813L36.2188 60.5ZM68.5938 60.5L69.5936 60.4813L69.5752 59.5H68.5938V60.5ZM68.8438 73.875V74.875H69.8626L69.8436 73.8563L68.8438 73.875ZM66.9688 73.875L66.0233 74.2007L66.2555 74.875H66.9688V73.875ZM65.0312 68.25L65.9767 67.9243L65.9733 67.9143L65.9696 67.9043L65.0312 68.25ZM64.2188 66.1875L65.1379 65.7936L65.1313 65.7782L65.1242 65.7631L64.2188 66.1875ZM56.7812 62.1875V61.1875H55.7812V62.1875H56.7812ZM56.7812 96.3125H55.7812V97.3125H56.7812V96.3125ZM61.0312 96.3125L61.1261 95.317L61.0788 95.3125H61.0312V96.3125ZM62.7188 97H42.0938V99H62.7188V97ZM43.0938 98V96.3125H41.0938V98H43.0938ZM42.0938 97.3125H48.0312V95.3125H42.0938V97.3125ZM49.0312 96.3125V62.1875H47.0312V96.3125H49.0312ZM48.0312 61.1875H46.9688V63.1875H48.0312V61.1875ZM46.9688 61.1875C45.426 61.1875 44.0454 61.4827 42.8675 62.1207L43.82 63.8793C44.6421 63.434 45.6782 63.1875 46.9688 63.1875V61.1875ZM42.8476 62.1318C41.0758 63.1442 39.7816 65.1729 38.8356 67.9249L40.7269 68.5751C41.6143 65.9938 42.6951 64.5224 43.8399 63.8682L42.8476 62.1318ZM38.8358 67.9243L36.8983 73.5493L38.7892 74.2007L40.7267 68.5757L38.8358 67.9243ZM37.8438 72.875H35.9688V74.875H37.8438V72.875ZM36.9686 73.8937L37.2186 60.5187L35.2189 60.4813L34.9689 73.8563L36.9686 73.8937ZM36.2188 61.5H68.5938V59.5H36.2188V61.5ZM67.5939 60.5187L67.8439 73.8937L69.8436 73.8563L69.5936 60.4813L67.5939 60.5187ZM68.8438 72.875H66.9688V74.875H68.8438V72.875ZM67.9142 73.5493L65.9767 67.9243L64.0858 68.5757L66.0233 74.2007L67.9142 73.5493ZM65.9696 67.9043C65.6738 67.1013 65.3965 66.397 65.1379 65.7936L63.2996 66.5814C63.541 67.1447 63.8054 67.8154 64.0929 68.5957L65.9696 67.9043ZM65.1242 65.7631C64.4321 64.2867 63.4707 63.1258 62.219 62.3404C60.9684 61.5558 59.4946 61.1875 57.8438 61.1875V63.1875C59.1929 63.1875 60.2816 63.4859 61.156 64.0346C62.0293 64.5825 62.7554 65.4217 63.3133 66.6119L65.1242 65.7631ZM57.8438 61.1875H56.7812V63.1875H57.8438V61.1875ZM55.7812 62.1875V96.3125H57.7812V62.1875H55.7812ZM56.7812 97.3125H61.0312V95.3125H56.7812V97.3125ZM60.9364 97.308C61.1684 97.3301 61.3029 97.4046 61.4023 97.504C61.5153 97.617 61.65 97.8317 61.7464 98.2334L63.6911 97.7666C63.5375 97.1267 63.2659 96.5392 62.8165 96.0898C62.3533 95.6266 61.7691 95.3782 61.1261 95.317L60.9364 97.308ZM119.344 60.5H120.344V59.5H119.344V60.5ZM119.344 62.1875V63.1875H120.344V62.1875H119.344ZM114.344 62.1875V61.1875H113.344V62.1875H114.344ZM114.344 96.3125H113.344V97.3125H114.344V96.3125ZM117.656 96.3125L117.751 95.317L117.704 95.3125H117.656V96.3125ZM119.344 98V99H120.612L120.316 97.7666L119.344 98ZM100.906 98H99.9062V99H100.906V98ZM100.906 96.3125V95.3125H99.9062V96.3125H100.906ZM105.906 96.3125V97.3125H106.906V96.3125H105.906ZM105.906 66.625H106.906L104.984 66.2378L105.906 66.625ZM92.4688 98.625V99.625H93.1334L93.3908 99.0122L92.4688 98.625ZM91.3438 98.625L90.4545 99.0825L90.7337 99.625H91.3438V98.625ZM78.0312 72.75L78.9205 72.2925L77.0312 72.75H78.0312ZM78.0312 96.3125H77.0312V97.3125H78.0312V96.3125ZM81.3438 96.3125L81.4386 95.317L81.3913 95.3125H81.3438V96.3125ZM83.0312 98V99H84.2996L84.0036 97.7666L83.0312 98ZM70.4062 98H69.4062V99H70.4062V98ZM70.4062 96.3125V95.3125H69.4062V96.3125H70.4062ZM75.4062 96.3125V97.3125H76.4062V96.3125H75.4062ZM75.4062 62.1875H76.4062V61.1875H75.4062V62.1875ZM70.4062 62.1875H69.4062V63.1875H70.4062V62.1875ZM70.4062 60.5V59.5H69.4062V60.5H70.4062ZM81.5938 60.5L82.4923 60.0612L82.2183 59.5H81.5938V60.5ZM94.7188 87.375L93.8202 87.8138L94.7914 89.8025L95.642 87.7593L94.7188 87.375ZM105.906 60.5V59.5H105.239L104.983 60.1157L105.906 60.5ZM118.344 60.5V62.1875H120.344V60.5H118.344ZM119.344 61.1875H114.344V63.1875H119.344V61.1875ZM113.344 62.1875V96.3125H115.344V62.1875H113.344ZM114.344 97.3125H117.656V95.3125H114.344V97.3125ZM117.561 97.308C117.793 97.3301 117.928 97.4046 118.027 97.504C118.14 97.617 118.275 97.8317 118.371 98.2334L120.316 97.7666C120.163 97.1267 119.891 96.5392 119.441 96.0898C118.978 95.6266 118.394 95.3782 117.751 95.317L117.561 97.308ZM119.344 97H100.906V99H119.344V97ZM101.906 98V96.3125H99.9062V98H101.906ZM100.906 97.3125H105.906V95.3125H100.906V97.3125ZM106.906 96.3125V66.625H104.906V96.3125H106.906ZM104.984 66.2378L91.5467 98.2378L93.3908 99.0122L106.828 67.0122L104.984 66.2378ZM92.4688 97.625H91.3438V99.625H92.4688V97.625ZM92.233 98.1675L78.9205 72.2925L77.142 73.2075L90.4545 99.0825L92.233 98.1675ZM77.0312 72.75V96.3125H79.0312V72.75H77.0312ZM78.0312 97.3125H81.3438V95.3125H78.0312V97.3125ZM81.2489 97.308C81.4809 97.3301 81.6154 97.4046 81.7148 97.504C81.8278 97.617 81.9625 97.8317 82.0589 98.2334L84.0036 97.7666C83.85 97.1267 83.5784 96.5392 83.129 96.0898C82.6658 95.6266 82.0816 95.3782 81.4386 95.317L81.2489 97.308ZM83.0312 97H70.4062V99H83.0312V97ZM71.4062 98V96.3125H69.4062V98H71.4062ZM70.4062 97.3125H75.4062V95.3125H70.4062V97.3125ZM76.4062 96.3125V62.1875H74.4062V96.3125H76.4062ZM75.4062 61.1875H70.4062V63.1875H75.4062V61.1875ZM71.4062 62.1875V60.5H69.4062V62.1875H71.4062ZM70.4062 61.5H81.5938V59.5H70.4062V61.5ZM80.6952 60.9388L93.8202 87.8138L95.6173 86.9362L82.4923 60.0612L80.6952 60.9388ZM95.642 87.7593L106.829 60.8843L104.983 60.1157L93.7955 86.9907L95.642 87.7593ZM105.906 61.5H119.344V59.5H105.906V61.5Z" fill="black" fill-opacity="0.2" mask="url(#path-3-outside-1_14_8)"/>
<path d="M62.7188 98V99H63.9871L63.6911 97.7666L62.7188 98ZM42.0938 98H41.0938V99H42.0938V98ZM42.0938 96.3125V95.3125H41.0938V96.3125H42.0938ZM48.0312 96.3125V97.3125H49.0312V96.3125H48.0312ZM48.0312 62.1875H49.0312V61.1875H48.0312V62.1875ZM43.3438 63L42.8675 62.1207L42.8575 62.1261L42.8476 62.1318L43.3438 63ZM39.7812 68.25L40.7267 68.5757L40.7269 68.5751L39.7812 68.25ZM37.8438 73.875V74.875H38.557L38.7892 74.2007L37.8438 73.875ZM35.9688 73.875L34.9689 73.8563L34.9499 74.875H35.9688V73.875ZM36.2188 60.5V59.5H35.2373L35.2189 60.4813L36.2188 60.5ZM68.5938 60.5L69.5936 60.4813L69.5752 59.5H68.5938V60.5ZM68.8438 73.875V74.875H69.8626L69.8436 73.8563L68.8438 73.875ZM66.9688 73.875L66.0233 74.2007L66.2555 74.875H66.9688V73.875ZM65.0312 68.25L65.9767 67.9243L65.9733 67.9143L65.9696 67.9043L65.0312 68.25ZM64.2188 66.1875L65.1379 65.7936L65.1313 65.7782L65.1242 65.7631L64.2188 66.1875ZM56.7812 62.1875V61.1875H55.7812V62.1875H56.7812ZM56.7812 96.3125H55.7812V97.3125H56.7812V96.3125ZM61.0312 96.3125L61.1261 95.317L61.0788 95.3125H61.0312V96.3125ZM62.7188 97H42.0938V99H62.7188V97ZM43.0938 98V96.3125H41.0938V98H43.0938ZM42.0938 97.3125H48.0312V95.3125H42.0938V97.3125ZM49.0312 96.3125V62.1875H47.0312V96.3125H49.0312ZM48.0312 61.1875H46.9688V63.1875H48.0312V61.1875ZM46.9688 61.1875C45.426 61.1875 44.0454 61.4827 42.8675 62.1207L43.82 63.8793C44.6421 63.434 45.6782 63.1875 46.9688 63.1875V61.1875ZM42.8476 62.1318C41.0758 63.1442 39.7816 65.1729 38.8356 67.9249L40.7269 68.5751C41.6143 65.9938 42.6951 64.5224 43.8399 63.8682L42.8476 62.1318ZM38.8358 67.9243L36.8983 73.5493L38.7892 74.2007L40.7267 68.5757L38.8358 67.9243ZM37.8438 72.875H35.9688V74.875H37.8438V72.875ZM36.9686 73.8937L37.2186 60.5187L35.2189 60.4813L34.9689 73.8563L36.9686 73.8937ZM36.2188 61.5H68.5938V59.5H36.2188V61.5ZM67.5939 60.5187L67.8439 73.8937L69.8436 73.8563L69.5936 60.4813L67.5939 60.5187ZM68.8438 72.875H66.9688V74.875H68.8438V72.875ZM67.9142 73.5493L65.9767 67.9243L64.0858 68.5757L66.0233 74.2007L67.9142 73.5493ZM65.9696 67.9043C65.6738 67.1013 65.3965 66.397 65.1379 65.7936L63.2996 66.5814C63.541 67.1447 63.8054 67.8154 64.0929 68.5957L65.9696 67.9043ZM65.1242 65.7631C64.4321 64.2867 63.4707 63.1258 62.219 62.3404C60.9684 61.5558 59.4946 61.1875 57.8438 61.1875V63.1875C59.1929 63.1875 60.2816 63.4859 61.156 64.0346C62.0293 64.5825 62.7554 65.4217 63.3133 66.6119L65.1242 65.7631ZM57.8438 61.1875H56.7812V63.1875H57.8438V61.1875ZM55.7812 62.1875V96.3125H57.7812V62.1875H55.7812ZM56.7812 97.3125H61.0312V95.3125H56.7812V97.3125ZM60.9364 97.308C61.1684 97.3301 61.3029 97.4046 61.4023 97.504C61.5153 97.617 61.65 97.8317 61.7464 98.2334L63.6911 97.7666C63.5375 97.1267 63.2659 96.5392 62.8165 96.0898C62.3533 95.6266 61.7691 95.3782 61.1261 95.317L60.9364 97.308ZM119.344 60.5H120.344V59.5H119.344V60.5ZM119.344 62.1875V63.1875H120.344V62.1875H119.344ZM114.344 62.1875V61.1875H113.344V62.1875H114.344ZM114.344 96.3125H113.344V97.3125H114.344V96.3125ZM117.656 96.3125L117.751 95.317L117.704 95.3125H117.656V96.3125ZM119.344 98V99H120.612L120.316 97.7666L119.344 98ZM100.906 98H99.9062V99H100.906V98ZM100.906 96.3125V95.3125H99.9062V96.3125H100.906ZM105.906 96.3125V97.3125H106.906V96.3125H105.906ZM105.906 66.625H106.906L104.984 66.2378L105.906 66.625ZM92.4688 98.625V99.625H93.1334L93.3908 99.0122L92.4688 98.625ZM91.3438 98.625L90.4545 99.0825L90.7337 99.625H91.3438V98.625ZM78.0312 72.75L78.9205 72.2925L77.0312 72.75H78.0312ZM78.0312 96.3125H77.0312V97.3125H78.0312V96.3125ZM81.3438 96.3125L81.4386 95.317L81.3913 95.3125H81.3438V96.3125ZM83.0312 98V99H84.2996L84.0036 97.7666L83.0312 98ZM70.4062 98H69.4062V99H70.4062V98ZM70.4062 96.3125V95.3125H69.4062V96.3125H70.4062ZM75.4062 96.3125V97.3125H76.4062V96.3125H75.4062ZM75.4062 62.1875H76.4062V61.1875H75.4062V62.1875ZM70.4062 62.1875H69.4062V63.1875H70.4062V62.1875ZM70.4062 60.5V59.5H69.4062V60.5H70.4062ZM81.5938 60.5L82.4923 60.0612L82.2183 59.5H81.5938V60.5ZM94.7188 87.375L93.8202 87.8138L94.7914 89.8025L95.642 87.7593L94.7188 87.375ZM105.906 60.5V59.5H105.239L104.983 60.1157L105.906 60.5ZM118.344 60.5V62.1875H120.344V60.5H118.344ZM119.344 61.1875H114.344V63.1875H119.344V61.1875ZM113.344 62.1875V96.3125H115.344V62.1875H113.344ZM114.344 97.3125H117.656V95.3125H114.344V97.3125ZM117.561 97.308C117.793 97.3301 117.928 97.4046 118.027 97.504C118.14 97.617 118.275 97.8317 118.371 98.2334L120.316 97.7666C120.163 97.1267 119.891 96.5392 119.441 96.0898C118.978 95.6266 118.394 95.3782 117.751 95.317L117.561 97.308ZM119.344 97H100.906V99H119.344V97ZM101.906 98V96.3125H99.9062V98H101.906ZM100.906 97.3125H105.906V95.3125H100.906V97.3125ZM106.906 96.3125V66.625H104.906V96.3125H106.906ZM104.984 66.2378L91.5467 98.2378L93.3908 99.0122L106.828 67.0122L104.984 66.2378ZM92.4688 97.625H91.3438V99.625H92.4688V97.625ZM92.233 98.1675L78.9205 72.2925L77.142 73.2075L90.4545 99.0825L92.233 98.1675ZM77.0312 72.75V96.3125H79.0312V72.75H77.0312ZM78.0312 97.3125H81.3438V95.3125H78.0312V97.3125ZM81.2489 97.308C81.4809 97.3301 81.6154 97.4046 81.7148 97.504C81.8278 97.617 81.9625 97.8317 82.0589 98.2334L84.0036 97.7666C83.85 97.1267 83.5784 96.5392 83.129 96.0898C82.6658 95.6266 82.0816 95.3782 81.4386 95.317L81.2489 97.308ZM83.0312 97H70.4062V99H83.0312V97ZM71.4062 98V96.3125H69.4062V98H71.4062ZM70.4062 97.3125H75.4062V95.3125H70.4062V97.3125ZM76.4062 96.3125V62.1875H74.4062V96.3125H76.4062ZM75.4062 61.1875H70.4062V63.1875H75.4062V61.1875ZM71.4062 62.1875V60.5H69.4062V62.1875H71.4062ZM70.4062 61.5H81.5938V59.5H70.4062V61.5ZM80.6952 60.9388L93.8202 87.8138L95.6173 86.9362L82.4923 60.0612L80.6952 60.9388ZM95.642 87.7593L106.829 60.8843L104.983 60.1157L93.7955 86.9907L95.642 87.7593ZM105.906 61.5H119.344V59.5H105.906V61.5Z" fill="black" fill-opacity="0.2" mask="url(#path-3-outside-1_14_8)"/>
</svg>
